<?xml version="1.0" standalone="no"?>
<!DOCTYPE svg PUBLIC "-//W3C//DTD SVG 20010904//EN"
  "http://www.w3.org/TR/2001/REC-SVG-20010904/DTD/svg10.dtd">
<svg width="15" height="15">
  <circle cx="0" cy="0" r="1" fill="none"/>
  <circle cx="1" cy="0" r="1" fill="none"/>
  <circle cx="2" cy="0" r="1" fill="none"/>
  <circle cx="3" cy="0" r="1" fill="none"/>
  <circle cx="4" cy="0" r="1" fill="none"/>
  <circle cx="5" cy="0" r="1" fill="none"/>
  <circle cx="6" cy="0" r="1" fill="srgba(0,0,0,0.431373)"/>
  <circle cx="7" cy="0" r="1" fill="srgba(0,0,0,0.905882)"/>
  <circle cx="8" cy="0" r="1" fill="srgba(0,0,0,0.537255)"/>
  <circle cx="9" cy="0" r="1" fill="none"/>
  <circle cx="10" cy="0" r="1" fill="none"/>
  <circle cx="11" cy="0" r="1" fill="none"/>
  <circle cx="12" cy="0" r="1" fill="none"/>
  <circle cx="13" cy="0" r="1" fill="none"/>
  <circle cx="14" cy="0" r="1" fill="none"/>
  <circle cx="0" cy="1" r="1" fill="none"/>
  <circle cx="1" cy="1" r="1" fill="none"/>
  <circle cx="2" cy="1" r="1" fill="none"/>
  <circle cx="3" cy="1" r="1" fill="none"/>
  <circle cx="4" cy="1" r="1" fill="none"/>
  <circle cx="5" cy="1" r="1" fill="srgba(0,0,0,0.47451)"/>
  <circle cx="6" cy="1" r="1" fill="srgba(0,0,0,0.568627)"/>
  <circle cx="7" cy="1" r="1" fill="srgba(0,0,0,0.0941176)"/>
  <circle cx="8" cy="1" r="1" fill="srgba(0,0,0,0.462745)"/>
  <circle cx="9" cy="1" r="1" fill="srgba(0,0,0,0.564706)"/>
  <circle cx="10" cy="1" r="1" fill="none"/>
  <circle cx="11" cy="1" r="1" fill="none"/>
  <circle cx="12" cy="1" r="1" fill="none"/>
  <circle cx="13" cy="1" r="1" fill="none"/>
  <circle cx="14" cy="1" r="1" fill="none"/>
  <circle cx="0" cy="2" r="1" fill="none"/>
  <circle cx="1" cy="2" r="1" fill="none"/>
  <circle cx="2" cy="2" r="1" fill="none"/>
  <circle cx="3" cy="2" r="1" fill="none"/>
  <circle cx="4" cy="2" r="1" fill="srgba(0,0,0,0.513725)"/>
  <circle cx="5" cy="2" r="1" fill="srgba(0,0,0,0.52549)"/>
  <circle cx="6" cy="2" r="1" fill="none"/>
  <circle cx="7" cy="2" r="1" fill="none"/>
  <circle cx="8" cy="2" r="1" fill="none"/>
  <circle cx="9" cy="2" r="1" fill="srgba(0,0,0,0.435294)"/>
  <circle cx="10" cy="2" r="1" fill="srgba(0,0,0,0.6)"/>
  <circle cx="11" cy="2" r="1" fill="none"/>
  <circle cx="12" cy="2" r="1" fill="none"/>
  <circle cx="13" cy="2" r="1" fill="none"/>
  <circle cx="14" cy="2" r="1" fill="none"/>
  <circle cx="0" cy="3" r="1" fill="none"/>
  <circle cx="1" cy="3" r="1" fill="none"/>
  <circle cx="2" cy="3" r="1" fill="none"/>
  <circle cx="3" cy="3" r="1" fill="srgba(0,0,0,0.568627)"/>
  <circle cx="4" cy="3" r="1" fill="srgba(0,0,0,0.486275)"/>
  <circle cx="5" cy="3" r="1" fill="none"/>
  <circle cx="6" cy="3" r="1" fill="none"/>
  <circle cx="7" cy="3" r="1" fill="none"/>
  <circle cx="8" cy="3" r="1" fill="none"/>
  <circle cx="9" cy="3" r="1" fill="none"/>
  <circle cx="10" cy="3" r="1" fill="srgba(0,0,0,0.4)"/>
  <circle cx="11" cy="3" r="1" fill="srgba(0,0,0,0.631373)"/>
  <circle cx="12" cy="3" r="1" fill="none"/>
  <circle cx="13" cy="3" r="1" fill="none"/>
  <circle cx="14" cy="3" r="1" fill="none"/>
  <circle cx="0" cy="4" r="1" fill="none"/>
  <circle cx="1" cy="4" r="1" fill="none"/>
  <circle cx="2" cy="4" r="1" fill="srgba(0,0,0,0.607843)"/>
  <circle cx="3" cy="4" r="1" fill="srgba(0,0,0,0.431373)"/>
  <circle cx="4" cy="4" r="1" fill="none"/>
  <circle cx="5" cy="4" r="1" fill="none"/>
  <circle cx="6" cy="4" r="1" fill="none"/>
  <circle cx="7" cy="4" r="1" fill="none"/>
  <circle cx="8" cy="4" r="1" fill="none"/>
  <circle cx="9" cy="4" r="1" fill="none"/>
  <circle cx="10" cy="4" r="1" fill="none"/>
  <circle cx="11" cy="4" r="1" fill="srgba(0,0,0,0.368627)"/>
  <circle cx="12" cy="4" r="1" fill="srgba(0,0,0,0.662745)"/>
  <circle cx="13" cy="4" r="1" fill="none"/>
  <circle cx="14" cy="4" r="1" fill="none"/>
  <circle cx="0" cy="5" r="1" fill="none"/>
  <circle cx="1" cy="5" r="1" fill="srgba(0,0,0,0.643137)"/>
  <circle cx="2" cy="5" r="1" fill="srgba(0,0,0,0.392157)"/>
  <circle cx="3" cy="5" r="1" fill="none"/>
  <circle cx="4" cy="5" r="1" fill="none"/>
  <circle cx="5" cy="5" r="1" fill="none"/>
  <circle cx="6" cy="5" r="1" fill="none"/>
  <circle cx="7" cy="5" r="1" fill="none"/>
  <circle cx="8" cy="5" r="1" fill="none"/>
  <circle cx="9" cy="5" r="1" fill="none"/>
  <circle cx="10" cy="5" r="1" fill="none"/>
  <circle cx="11" cy="5" r="1" fill="none"/>
  <circle cx="12" cy="5" r="1" fill="srgba(0,0,0,0.337255)"/>
  <circle cx="13" cy="5" r="1" fill="srgba(0,0,0,0.698039)"/>
  <circle cx="14" cy="5" r="1" fill="none"/>
  <circle cx="0" cy="6" r="1" fill="srgba(0,0,0,0.827451)"/>
  <circle cx="1" cy="6" r="1" fill="srgba(0,0,0,0.356863)"/>
  <circle cx="2" cy="6" r="1" fill="none"/>
  <circle cx="3" cy="6" r="1" fill="none"/>
  <circle cx="4" cy="6" r="1" fill="none"/>
  <circle cx="5" cy="6" r="1" fill="none"/>
  <circle cx="6" cy="6" r="1" fill="none"/>
  <circle cx="7" cy="6" r="1" fill="none"/>
  <circle cx="8" cy="6" r="1" fill="none"/>
  <circle cx="9" cy="6" r="1" fill="none"/>
  <circle cx="10" cy="6" r="1" fill="none"/>
  <circle cx="11" cy="6" r="1" fill="none"/>
  <circle cx="12" cy="6" r="1" fill="none"/>
  <circle cx="13" cy="6" r="1" fill="srgba(0,0,0,0.301961)"/>
  <circle cx="14" cy="6" r="1" fill="srgba(0,0,0,0.854902)"/>
  <circle cx="0" cy="7" r="1" fill="srgba(0,0,0,0.537255)"/>
  <circle cx="1" cy="7" r="1" fill="srgba(0,0,0,0.462745)"/>
  <circle cx="2" cy="7" r="1" fill="srgba(0,0,0,0.0784314)"/>
  <circle cx="3" cy="7" r="1" fill="none"/>
  <circle cx="4" cy="7" r="1" fill="none"/>
  <circle cx="5" cy="7" r="1" fill="none"/>
  <circle cx="6" cy="7" r="1" fill="none"/>
  <circle cx="7" cy="7" r="1" fill="none"/>
  <circle cx="8" cy="7" r="1" fill="none"/>
  <circle cx="9" cy="7" r="1" fill="none"/>
  <circle cx="10" cy="7" r="1" fill="none"/>
  <circle cx="11" cy="7" r="1" fill="none"/>
  <circle cx="12" cy="7" r="1" fill="srgba(0,0,0,0.0156863)"/>
  <circle cx="13" cy="7" r="1" fill="srgba(0,0,0,0.403922)"/>
  <circle cx="14" cy="7" r="1" fill="srgba(0,0,0,0.596078)"/>
  <circle cx="0" cy="8" r="1" fill="none"/>
  <circle cx="1" cy="8" r="1" fill="srgba(0,0,0,0.792157)"/>
  <circle cx="2" cy="8" r="1" fill="srgba(0,0,0,0.207843)"/>
  <circle cx="3" cy="8" r="1" fill="none"/>
  <circle cx="4" cy="8" r="1" fill="none"/>
  <circle cx="5" cy="8" r="1" fill="none"/>
  <circle cx="6" cy="8" r="1" fill="none"/>
  <circle cx="7" cy="8" r="1" fill="none"/>
  <circle cx="8" cy="8" r="1" fill="none"/>
  <circle cx="9" cy="8" r="1" fill="none"/>
  <circle cx="10" cy="8" r="1" fill="none"/>
  <circle cx="11" cy="8" r="1" fill="none"/>
  <circle cx="12" cy="8" r="1" fill="srgba(0,0,0,0.0509804)"/>
  <circle cx="13" cy="8" r="1" fill="srgba(0,0,0,0.94902)"/>
  <circle cx="14" cy="8" r="1" fill="none"/>
  <circle cx="0" cy="9" r="1" fill="none"/>
  <circle cx="1" cy="9" r="1" fill="srgba(0,0,0,0.823529)"/>
  <circle cx="2" cy="9" r="1" fill="srgba(0,0,0,0.176471)"/>
  <circle cx="3" cy="9" r="1" fill="none"/>
  <circle cx="4" cy="9" r="1" fill="none"/>
  <circle cx="5" cy="9" r="1" fill="srgba(0,0,0,0.0156863)"/>
  <circle cx="6" cy="9" r="1" fill="srgba(0,0,0,0.396078)"/>
  <circle cx="7" cy="9" r="1" fill="srgba(0,0,0,0.498039)"/>
  <circle cx="8" cy="9" r="1" fill="srgba(0,0,0,0.407843)"/>
  <circle cx="9" cy="9" r="1" fill="srgba(0,0,0,0.0117647)"/>
  <circle cx="10" cy="9" r="1" fill="none"/>
  <circle cx="11" cy="9" r="1" fill="none"/>
  <circle cx="12" cy="9" r="1" fill="srgba(0,0,0,0.0431373)"/>
  <circle cx="13" cy="9" r="1" fill="srgba(0,0,0,0.933333)"/>
  <circle cx="14" cy="9" r="1" fill="srgba(0,0,0,0.0666667)"/>
  <circle cx="0" cy="10" r="1" fill="none"/>
  <circle cx="1" cy="10" r="1" fill="srgba(0,0,0,0.823529)"/>
  <circle cx="2" cy="10" r="1" fill="srgba(0,0,0,0.176471)"/>
  <circle cx="3" cy="10" r="1" fill="none"/>
  <circle cx="4" cy="10" r="1" fill="srgba(0,0,0,0.0156863)"/>
  <circle cx="5" cy="10" r="1" fill="srgba(0,0,0,0.396078)"/>
  <circle cx="6" cy="10" r="1" fill="srgba(0,0,0,0.603922)"/>
  <circle cx="7" cy="10" r="1" fill="srgba(0,0,0,0.501961)"/>
  <circle cx="8" cy="10" r="1" fill="srgba(0,0,0,0.592157)"/>
  <circle cx="9" cy="10" r="1" fill="srgba(0,0,0,0.407843)"/>
  <circle cx="10" cy="10" r="1" fill="srgba(0,0,0,0.0117647)"/>
  <circle cx="11" cy="10" r="1" fill="none"/>
  <circle cx="12" cy="10" r="1" fill="srgba(0,0,0,0.0431373)"/>
  <circle cx="13" cy="10" r="1" fill="srgba(0,0,0,0.933333)"/>
  <circle cx="14" cy="10" r="1" fill="srgba(0,0,0,0.0666667)"/>
  <circle cx="0" cy="11" r="1" fill="none"/>
  <circle cx="1" cy="11" r="1" fill="srgba(0,0,0,0.823529)"/>
  <circle cx="2" cy="11" r="1" fill="srgba(0,0,0,0.176471)"/>
  <circle cx="3" cy="11" r="1" fill="none"/>
  <circle cx="4" cy="11" r="1" fill="srgba(0,0,0,0.164706)"/>
  <circle cx="5" cy="11" r="1" fill="srgba(0,0,0,0.835294)"/>
  <circle cx="6" cy="11" r="1" fill="none"/>
  <circle cx="7" cy="11" r="1" fill="none"/>
  <circle cx="8" cy="11" r="1" fill="none"/>
  <circle cx="9" cy="11" r="1" fill="srgba(0,0,0,0.8)"/>
  <circle cx="10" cy="11" r="1" fill="srgba(0,0,0,0.2)"/>
  <circle cx="11" cy="11" r="1" fill="none"/>
  <circle cx="12" cy="11" r="1" fill="srgba(0,0,0,0.0431373)"/>
  <circle cx="13" cy="11" r="1" fill="srgba(0,0,0,0.933333)"/>
  <circle cx="14" cy="11" r="1" fill="srgba(0,0,0,0.0666667)"/>
  <circle cx="0" cy="12" r="1" fill="none"/>
  <circle cx="1" cy="12" r="1" fill="srgba(0,0,0,0.827451)"/>
  <circle cx="2" cy="12" r="1" fill="srgba(0,0,0,0.172549)"/>
  <circle cx="3" cy="12" r="1" fill="none"/>
  <circle cx="4" cy="12" r="1" fill="srgba(0,0,0,0.184314)"/>
  <circle cx="5" cy="12" r="1" fill="srgba(0,0,0,0.815686)"/>
  <circle cx="6" cy="12" r="1" fill="none"/>
  <circle cx="7" cy="12" r="1" fill="none"/>
  <circle cx="8" cy="12" r="1" fill="none"/>
  <circle cx="9" cy="12" r="1" fill="srgba(0,0,0,0.772549)"/>
  <circle cx="10" cy="12" r="1" fill="srgba(0,0,0,0.227451)"/>
  <circle cx="11" cy="12" r="1" fill="none"/>
  <circle cx="12" cy="12" r="1" fill="srgba(0,0,0,0.0392157)"/>
  <circle cx="13" cy="12" r="1" fill="srgba(0,0,0,0.929412)"/>
  <circle cx="14" cy="12" r="1" fill="srgba(0,0,0,0.0705882)"/>
  <circle cx="0" cy="13" r="1" fill="none"/>
  <circle cx="1" cy="13" r="1" fill="srgba(0,0,0,0.921569)"/>
  <circle cx="2" cy="13" r="1" fill="srgba(0,0,0,0.0784314)"/>
  <circle cx="3" cy="13" r="1" fill="srgba(0,0,0,0.0509804)"/>
  <circle cx="4" cy="13" r="1" fill="srgba(0,0,0,0.109804)"/>
  <circle cx="5" cy="13" r="1" fill="srgba(0,0,0,0.890196)"/>
  <circle cx="6" cy="13" r="1" fill="none"/>
  <circle cx="7" cy="13" r="1" fill="none"/>
  <circle cx="8" cy="13" r="1" fill="none"/>
  <circle cx="9" cy="13" r="1" fill="srgba(0,0,0,0.85098)"/>
  <circle cx="10" cy="13" r="1" fill="srgba(0,0,0,0.14902)"/>
  <circle cx="11" cy="13" r="1" fill="srgba(0,0,0,0.0509804)"/>
  <circle cx="12" cy="13" r="1" fill="srgba(0,0,0,0.054902)"/>
  <circle cx="13" cy="13" r="1" fill="srgba(0,0,0,0.933333)"/>
  <circle cx="14" cy="13" r="1" fill="srgba(0,0,0,0.0666667)"/>
  <circle cx="0" cy="14" r="1" fill="none"/>
  <circle cx="1" cy="14" r="1" fill="srgba(0,0,0,0.54902)"/>
  <circle cx="2" cy="14" r="1" fill="srgba(0,0,0,0.941176)"/>
  <circle cx="3" cy="14" r="1" fill="srgba(0,0,0,0.94902)"/>
  <circle cx="4" cy="14" r="1" fill="srgba(0,0,0,0.94902)"/>
  <circle cx="5" cy="14" r="1" fill="srgba(0,0,0,0.784314)"/>
  <circle cx="6" cy="14" r="1" fill="none"/>
  <circle cx="7" cy="14" r="1" fill="none"/>
  <circle cx="8" cy="14" r="1" fill="none"/>
  <circle cx="9" cy="14" r="1" fill="srgba(0,0,0,0.74902)"/>
  <circle cx="10" cy="14" r="1" fill="srgba(0,0,0,0.94902)"/>
  <circle cx="11" cy="14" r="1" fill="srgba(0,0,0,0.94902)"/>
  <circle cx="12" cy="14" r="1" fill="srgba(0,0,0,0.945098)"/>
  <circle cx="13" cy="14" r="1" fill="srgba(0,0,0,0.662745)"/>
  <circle cx="14" cy="14" r="1" fill="srgba(0,0,0,0.00784314)"/>
</svg>
