<svg xmlns="http://www.w3.org/2000/svg" viewBox="0 0 22 22">
  <defs>
    <style>
      .cls-1 {
        opacity: 0.65;
      }

      .cls-2 {
        fill: none;
      }
    </style>
  </defs>
  <g id="ic_user" class="cls-1">
    <rect id="Rectangle_43_Copy_12" data-name="Rectangle 43 Copy 12" class="cls-2" width="22" height="22"/>
    <g id="user" transform="translate(3.837 1.414)">
      <path id="Shape" d="M13.561,19.209a.774.774,0,0,1-.773-.774,5.621,5.621,0,0,0-9.595-3.974,5.58,5.58,0,0,0-1.646,3.974.773.773,0,1,1-1.547,0,7.176,7.176,0,0,1,4.377-6.6,7,7,0,0,1,.889-.309A5.928,5.928,0,0,1,1.248,5.917a5.915,5.915,0,0,1,10.1-4.183,5.911,5.911,0,0,1,0,8.366,5.855,5.855,0,0,1-2.284,1.422,7.482,7.482,0,0,1,.889.309,7.18,7.18,0,0,1,4.381,6.6A.775.775,0,0,1,13.561,19.209ZM7.163,1.547a4.37,4.37,0,1,0,4.37,4.37A4.375,4.375,0,0,0,7.163,1.547Z" transform="translate(0 0)"/>
    </g>
  </g>
</svg>
